<?xml version="1.0" encoding="utf-8"?>
<!-- Generator: Adobe Illustrator 28.0.0, SVG Export Plug-In . SVG Version: 6.00 Build 0)  -->
<svg version="1.1" id="Calque_1" xmlns="http://www.w3.org/2000/svg" xmlns:xlink="http://www.w3.org/1999/xlink" x="0px" y="0px"
	 viewBox="0 0 595.28 841.89" style="enable-background:new 0 0 595.28 841.89;" xml:space="preserve">
<path d="M337.89,678.59c0-60.71,0-121,0-181.84c20.26,0,40.34,0,60.99,0c3.87-25.34,7.67-50.23,11.58-75.81
	c-24.52,0-48.42,0-72.79,0c0-11.91-0.09-23.2,0.03-34.5c0.08-7.65-0.58-15.5,0.87-22.91c3.93-20.2,18.59-31.45,40.03-31.71
	c11.8-0.14,23.61-0.03,35.75-0.03c0-21.49,0-42.57,0-64.17c-6.65-0.91-13.18-2.23-19.77-2.64c-15.61-0.96-31.27-2.47-46.85-1.95
	c-25.78,0.86-48.92,9.11-66.57,29.1c-13.6,15.4-20.76,33.85-21.96,53.99c-1.38,22.92-0.91,45.95-1.24,68.94
	c-0.03,1.79,0,3.57,0,5.84c-2.29,0-4.08,0-5.87,0c-18.83,0-37.67,0.08-56.5-0.07c-3.5-0.03-4.56,1.05-4.54,4.54
	c0.13,22.17,0.15,44.35-0.02,66.52c-0.03,3.85,1.3,4.77,4.91,4.74c18.67-0.15,37.34-0.07,56-0.07c1.8,0,3.61,0,5.71,0
	c0,60.86,0,121.3-0.01,181.74C153.4,665.33,41.44,571.63,37.16,428.2c-4.2-140.72,105.2-259.63,245.58-267.22
	c143.96-7.79,260.58,98.89,274.1,232.92C571.88,543.16,463.95,660.25,337.89,678.59z"/>
</svg>
