<?xml version="1.0" encoding="utf-8"?>
<!-- Generator: Adobe Illustrator 28.0.0, SVG Export Plug-In . SVG Version: 6.00 Build 0)  -->
<svg version="1.1" id="Calque_1" xmlns="http://www.w3.org/2000/svg" xmlns:xlink="http://www.w3.org/1999/xlink" x="0px" y="0px"
	 viewBox="0 0 595.3 841.9" style="enable-background:new 0 0 595.3 841.9;" xml:space="preserve">
<path d="M382.1,625.5c-56.4,0-112.9,0-169.3,0c-0.6-0.2-1.3-0.5-1.9-0.5c-21.5-1.6-41.3-8.2-59.4-20c-27-17.7-45.1-42-53.7-73.1
	c-2.3-8.5-3.3-17.4-4.9-26.1c0-56.4,0-112.9,0-169.3c0.5-3.8,1-7.6,1.6-11.4c5.1-32.4,20.4-59.1,45.7-79.8
	c24.2-19.8,52.3-28.8,83.5-28.7c48.3,0.1,96.6-0.1,144.9,0.1c8.4,0,16.8,0.4,25,1.7c27.9,4.1,51.8,16.5,71.4,36.6
	c25,25.6,36.8,56.7,36.7,92.4c-0.1,49.2,0,98.5,0,147.7c0,21.2-4,41.5-13.9,60.4c-17.4,33.2-44,55.2-80.1,65.2
	C399.5,623,390.7,623.9,382.1,625.5z M131.3,420.9c0,24.9-0.1,49.8,0.1,74.6c0.1,6.9,0.5,13.9,1.9,20.6c9.4,42.3,44.9,70.9,88.4,71
	c50.4,0.1,100.9,0.3,151.3-0.2c9.7-0.1,19.8-1.5,29-4.6c38.2-12.8,61.5-46,61.5-86.4c0-49.9,0.1-99.8-0.1-149.7
	c0-6.7-0.5-13.6-1.9-20.2c-9.4-42.3-44.9-70.9-88.4-71c-50.4-0.1-100.9-0.3-151.3,0.2c-9.7,0.1-19.8,1.5-29,4.6
	c-38.2,12.8-61.4,46-61.5,86.4C131.3,371.1,131.3,396,131.3,420.9z"/>
<path d="M297.5,523.3c-56.3,0-102.4-46.2-102.2-102.4c0.2-56.3,46-102,102.2-102c56.3,0,102.4,46.2,102.2,102.4
	C399.5,477.5,353.6,523.3,297.5,523.3z M361.3,421c-0.1-35-28.7-63.7-63.8-63.8c-35.2-0.1-64,28.8-64,64c0.1,35,28.8,63.7,63.8,63.8
	C332.5,485,361.4,456.1,361.3,421z"/>
<path d="M407.1,324.7c-7.5-0.1-13.3-6.1-13.3-13.5c0-7.6,6.2-13.8,13.7-13.6c7.4,0.1,13.4,6.3,13.4,13.6
	C421,318.7,414.7,324.8,407.1,324.7z"/>
</svg>
