<?xml version="1.0" encoding="utf-8"?>
<!-- Generator: Adobe Illustrator 28.0.0, SVG Export Plug-In . SVG Version: 6.00 Build 0)  -->
<svg version="1.1" id="Calque_1" xmlns="http://www.w3.org/2000/svg" xmlns:xlink="http://www.w3.org/1999/xlink" x="0px" y="0px"
	 viewBox="0 0 595.28 841.89" style="enable-background:new 0 0 595.28 841.89;" xml:space="preserve">
<style type="text/css">
	.st0{fill:#FFFFFF;}
</style>
<path d="M382.11,625.49c-56.44,0-112.87,0-169.31,0c-0.63-0.18-1.26-0.48-1.9-0.52c-21.49-1.61-41.33-8.23-59.35-20.03
	c-26.98-17.67-45.12-42-53.68-73.13c-2.34-8.5-3.29-17.38-4.87-26.09c0-56.43,0-112.85,0-169.28c0.54-3.78,1.02-7.58,1.61-11.35
	c5.08-32.4,20.43-59.06,45.72-79.75c24.18-19.78,52.29-28.77,83.48-28.7c48.3,0.11,96.61-0.05,144.91,0.1
	c8.35,0.03,16.79,0.45,25.04,1.67c27.89,4.11,51.81,16.5,71.44,36.61c24.99,25.6,36.77,56.65,36.72,92.36
	c-0.07,49.23-0.04,98.45-0.01,147.68c0.01,21.21-4.04,41.51-13.92,60.38c-17.36,33.15-43.97,55.21-80.11,65.25
	C399.49,623.01,390.71,623.93,382.11,625.49z M131.33,420.86c0,24.88-0.14,49.77,0.09,74.65c0.06,6.88,0.47,13.91,1.95,20.6
	c9.35,42.34,44.94,70.9,88.4,71.01c50.44,0.14,100.89,0.27,151.33-0.17c9.69-0.09,19.8-1.52,28.96-4.59
	c38.23-12.84,61.46-46.01,61.5-86.41c0.05-49.9,0.08-99.8-0.07-149.7c-0.02-6.74-0.49-13.64-1.94-20.2
	c-9.36-42.34-44.94-70.89-88.4-71.01c-50.44-0.14-100.89-0.27-151.33,0.17c-9.69,0.09-19.8,1.52-28.96,4.59
	c-38.23,12.84-61.44,46.01-61.51,86.41C131.3,371.09,131.33,395.98,131.33,420.86z"/>
<path class="st0" d="M382.11,625.49c8.6-1.56,17.39-2.48,25.78-4.81c36.14-10.04,62.75-32.1,80.11-65.25
	c9.88-18.87,13.93-39.17,13.92-60.38c-0.03-49.23-0.06-98.45,0.01-147.68c0.05-35.7-11.73-66.76-36.72-92.36
	c-19.63-20.11-43.55-32.5-71.44-36.61c-8.25-1.22-16.69-1.64-25.04-1.67c-48.3-0.15-96.61,0.01-144.91-0.1
	c-31.19-0.07-59.3,8.91-83.48,28.7c-25.29,20.69-40.63,47.35-45.72,79.75c-0.59,3.78-1.08,7.57-1.61,11.35c0-40.18,0-80.35,0-120.55
	c136.5,0,273,0,409.6,0c0,136.52,0,273.06,0,409.6C462.47,625.49,422.29,625.49,382.11,625.49z"/>
<path class="st0" d="M93,505.72c1.59,8.71,2.54,17.59,4.87,26.09c8.55,31.13,26.7,55.46,53.68,73.13
	c18.02,11.8,37.85,18.42,59.35,20.03c0.64,0.05,1.27,0.34,1.9,0.52c-39.93,0-79.86,0-119.8,0C93,585.57,93,545.64,93,505.72z"/>
<path d="M297.46,523.27c-56.32,0.01-102.42-46.17-102.22-102.38c0.2-56.27,46.01-101.99,102.2-102
	c56.32-0.01,102.42,46.17,102.22,102.38C399.46,477.54,353.65,523.26,297.46,523.27z M361.33,420.97
	c-0.07-35.04-28.73-63.7-63.78-63.76c-35.18-0.07-64.04,28.79-63.98,63.96c0.06,35.02,28.75,63.71,63.78,63.77
	C332.5,485.01,361.4,456.12,361.33,420.97z"/>
<path d="M407.15,324.73c-7.45-0.09-13.34-6.07-13.34-13.51c0-7.57,6.24-13.76,13.72-13.61c7.36,0.15,13.41,6.27,13.43,13.59
	C420.98,318.69,414.72,324.82,407.15,324.73z"/>
</svg>
