<?xml version="1.0" encoding="utf-8"?>
<!-- Generator: Adobe Illustrator 28.0.0, SVG Export Plug-In . SVG Version: 6.00 Build 0)  -->
<svg version="1.1" id="Calque_1" xmlns="http://www.w3.org/2000/svg" xmlns:xlink="http://www.w3.org/1999/xlink" x="0px" y="0px"
	 viewBox="0 0 595.28 841.89" style="enable-background:new 0 0 595.28 841.89;" xml:space="preserve">
<path d="M281.97,463.54c-2.95-0.53-5.58-1.16-8.24-1.46c-15.18-1.72-27.99,3.2-38.45,14.18c-12.56,13.19-15.75,33.97-7.2,49.97
	c7.66,14.35,19.95,22.69,36.17,24.3c23.86,2.36,44.55-14.08,48.21-37.81c0.21-1.33,0.29-2.69,0.29-4.03
	c0.01-70.11,0.01-140.22,0.01-210.33c0-4.36,0.08-4.44,4.43-4.44c10.8,0,21.61,0,32.41,0c2.76,0,3.14,0.29,3.74,2.95
	c4.11,18.31,13.97,32.73,28.71,44.3c12.5,9.81,26.61,14.06,42.15,14.66c1.19,0.05,1.62,0.41,1.61,1.6
	c-0.02,20.79-0.02,41.59-0.02,62.38c0,0.36-0.08,0.73-0.14,1.25c-21.34-2.62-40.66-10.21-58.55-22.66c0,1.1,0,1.78,0,2.45
	c0,35.05,0.11,70.11-0.03,105.16c-0.14,32.99-13.53,59.7-39.69,79.56c-19.09,14.49-41.04,20.78-65.07,19.24
	c-23.23-1.49-43.25-10.43-60.66-25.82c-19.4-17.15-29.5-38.82-31.69-64.27c-3.6-41.65,19.86-81.03,57.91-98.12
	c15.82-7.11,32.28-9.65,49.47-7.79c4.76,0.52,4.76,0.51,4.76,5.32c0,15.72,0,31.44,0,47.15
	C282.07,461.98,282.01,462.67,281.97,463.54z"/>
</svg>
